<svg width="36" height="36" viewBox="0 0 36 36" fill="none" xmlns="http://www.w3.org/2000/svg">
  <path
    d="M0 17.28C0 9.1341 0 5.0612 2.5306 2.5306C5.0612 0 9.1341 0 17.28 0H18.72C26.8659 0 30.9388 0 33.4694 2.5306C36 5.0612 36 9.1341 36 17.28V18.72C36 26.8659 36 30.9388 33.4694 33.4694C30.9388 36 26.8659 36 18.72 36H17.28C9.1341 36 5.0612 36 2.5306 33.4694C0 30.9388 0 26.8659 0 18.72V17.28Z"
    fill="#CD000C"
  />
  <path
    fill-rule="evenodd"
    clip-rule="evenodd"
    d="M18 27.1667C18 27.1667 25.5 22.1667 25.5 16.3333C25.5 14.3442 24.7098 12.4365 23.3033 11.03C21.8968 9.6235 19.9891 8.83333 18 8.83333C16.0109 8.83333 14.1032 9.6235 12.6967 11.03C11.2902 12.4365 10.5 14.3442 10.5 16.3333C10.5 22.1667 18 27.1667 18 27.1667ZM20.5 16.3333C20.5 17.714 19.3807 18.8333 18 18.8333C16.6193 18.8333 15.5 17.714 15.5 16.3333C15.5 14.9526 16.6193 13.8333 18 13.8333C19.3807 13.8333 20.5 14.9526 20.5 16.3333Z"
    fill="white"
  />
</svg>
