<svg width="36" height="36" viewBox="0 0 36 36" fill="none" xmlns="http://www.w3.org/2000/svg">
  <circle cx="18" cy="18" r="18" fill="#CD000C" />
  <path
    fill-rule="evenodd"
    clip-rule="evenodd"
    d="M18 27.1667C18 27.1667 25.5 22.1667 25.5 16.3333C25.5 14.3442 24.7098 12.4365 23.3033 11.03C21.8968 9.6235 19.9891 8.83333 18 8.83333C16.0109 8.83333 14.1032 9.6235 12.6967 11.03C11.2902 12.4365 10.5 14.3442 10.5 16.3333C10.5 22.1667 18 27.1667 18 27.1667ZM20.5 16.3333C20.5 17.714 19.3807 18.8333 18 18.8333C16.6193 18.8333 15.5 17.714 15.5 16.3333C15.5 14.9526 16.6193 13.8333 18 13.8333C19.3807 13.8333 20.5 14.9526 20.5 16.3333Z"
    fill="white"
  />
</svg>
