<svg width="36" height="36" viewBox="0 0 36 36" fill="none" xmlns="http://www.w3.org/2000/svg">
  <circle cx="18" cy="18" r="18" fill="#2AABEE" />
  <path
    fill-rule="evenodd"
    clip-rule="evenodd"
    d="M8.30615 17.8879C13.4064 15.6299 16.8074 14.1413 18.5091 13.4221C23.3677 11.3686 24.3773 11.0119 25.0354 11.0001C25.1801 10.9975 25.5037 11.034 25.7133 11.2068C25.8903 11.3528 25.939 11.5499 25.9623 11.6883C25.9856 11.8266 26.0146 12.1418 25.9916 12.3881C25.7283 15.1992 24.589 22.021 24.0094 25.1694C23.7642 26.5017 23.2813 26.9484 22.8138 26.9921C21.7978 27.0871 21.0263 26.3098 20.0422 25.6543C18.5024 24.6287 17.6325 23.9902 16.1378 22.9893C14.4105 21.8327 15.5303 21.1969 16.5147 20.158C16.7723 19.8861 21.2488 15.7487 21.3354 15.3733C21.3463 15.3264 21.3563 15.1514 21.254 15.059C21.1517 14.9666 21.0007 14.9982 20.8918 15.0234C20.7373 15.059 18.2775 16.7111 13.5121 19.9798C12.8139 20.467 12.1815 20.7044 11.6148 20.6919C10.9901 20.6782 9.78851 20.333 8.89523 20.038C7.79958 19.676 6.92878 19.4847 7.0046 18.8701C7.0441 18.55 7.47795 18.2226 8.30615 17.8879Z"
    fill="white"
  />
</svg>
