<svg width="36" height="36" viewBox="0 0 36 36" fill="none" xmlns="http://www.w3.org/2000/svg">
  <path
    d="M0 17.28C0 9.1341 0 5.0612 2.5306 2.5306C5.0612 0 9.1341 0 17.28 0H18.72C26.8659 0 30.9388 0 33.4694 2.5306C36 5.0612 36 9.1341 36 17.28V18.72C36 26.8659 36 30.9388 33.4694 33.4694C30.9388 36 26.8659 36 18.72 36H17.28C9.1341 36 5.0612 36 2.5306 33.4694C0 30.9388 0 26.8659 0 18.72V17.28Z"
    fill="#0077FF"
  />
  <path
    d="M19.155 25.9351C10.95 25.9351 6.27007 20.3101 6.07507 10.9501H10.1851C10.3201 17.8201 13.35 20.7301 15.75 21.3301V10.9501H19.6201V16.8751C21.9901 16.6201 24.4798 13.9201 25.3199 10.9501H29.1899C28.5449 14.6101 25.8449 17.3101 23.9249 18.4201C25.8449 19.3201 28.9201 21.6751 30.0901 25.9351H25.8299C24.9149 23.0851 22.6351 20.8801 19.6201 20.5801V25.9351H19.155Z"
    fill="white"
  />
</svg>
